<svg width="1440" height="881" viewBox="0 0 1440 881" fill="none" xmlns="http://www.w3.org/2000/svg" xmlns:xlink="http://www.w3.org/1999/xlink">
<path d="M0 0H1440V881H0V0Z" fill="url(#pattern0_23_119)"/>
<defs>
<pattern id="pattern0_23_119" patternUnits="userSpaceOnUse" patternTransform="matrix(144.75 0 0 163.5 671.75 413.25)" preserveAspectRatio="none" viewBox="0 0 289.5 327" width="1" height="1">
<use xlink:href="#pattern0_23_119_inner" transform="translate(-289.5 0)"/>
<g id="pattern0_23_119_inner">
<path d="M192.049 65.3213C187.318 61.5143 176.533 54.8757 165.251 52.0283C140.165 45.6974 113.383 54.1962 100.979 68.0881C97.2084 72.3111 94.3624 76.6381 91.3223 81.324C86.2998 89.068 79.77 95.3661 71.6818 99.6827C63.379 104.114 54.315 105.206 45.1691 103.245C27.2096 99.3967 16.1579 85.8955 12.6989 67.8593C8.65732 46.7754 14.2828 24.1468 30.6686 10.2504C36.616 5.20567 44.3414 2.77692 52.123 2.6625C61.7491 2.51688 68.5038 8.68498 74.0321 16.1585C75.0131 17.209 77.527 16.0077 78.3496 15.2483L81.5787 12.2787C82.2225 11.6858 82.4218 10.7601 82.2736 10.0788C82.151 9.4963 81.6707 8.88781 81.0933 8.41974C74.9774 3.46862 67.814 1.10227 59.9098 0.301353C43.7691 -1.33169 27.7665 3.67665 15.9229 15.2223C-6.05265 36.6755 -5.11252 75.91 17.6959 95.8862C35.2875 111.296 61.3404 114.146 80.0766 98.939C85.9626 94.1699 90.4939 88.6867 94.7296 82.3782C94.7296 82.3782 102.097 69.3711 110.518 63.9515C118.938 58.5319 145.11 47.9376 168.408 56.364C174.574 58.594 186.296 63.683 188.825 69.0918C189.336 70.1892 192.54 69.3779 192.948 67.568C193.137 66.7359 192.8 65.9246 192.049 65.3213Z" fill="#A89F91"/>
</g>
<use xlink:href="#pattern0_23_119_inner" transform="translate(-144.75 163.5)"/>
<use xlink:href="#pattern0_23_119_inner" transform="translate(144.75 163.5)"/>
</pattern></defs>
</svg>
